<svg width="1195" height="560" viewBox="0 0 1195 560" fill="none" xmlns="http://www.w3.org/2000/svg">
<g filter="url(#filter0_b_1_299)">
<path d="M43.75 68.5C56.8668 68.5 67.5 57.8668 67.5 44.75V43.25C67.5 29.3048 78.8048 18 92.75 18H350C366.569 18 380 31.4315 380 48L379.916 197.667C379.896 232.592 403.034 263.298 436.611 272.907V272.907C443.7 274.936 451.04 275.952 458.413 275.925L761.02 274.828C763.646 274.818 766.265 275.085 768.834 275.622V275.622C792.122 280.495 814 262.722 814 238.929V78C814 61.4315 827.431 48 844 48H1101.25C1115.2 48 1126.5 59.3048 1126.5 73.25C1126.5 87.1952 1126.5 74.75 1126.5 74.75C1126.5 87.8668 1137.13 98.5 1150.25 98.5C1163.37 98.5 1174 109.133 1174 122.25V284C1174 300.569 1160.57 314 1144 314H842.392C836.747 314 831.289 311.978 827.006 308.301V308.301C811.688 295.151 788 306.034 788 326.223V483.5C788 494.822 778.822 504 767.5 504H765C755.059 504 747 512.059 747 522C747 531.941 738.941 540 729 540H458C441.431 540 428 526.569 428 510V365.519C428 329.305 404.109 297.432 369.349 287.273V287.273C361.921 285.102 354.221 284 346.481 284H50C33.4314 284 20 270.569 20 254V92.25C20 79.1332 30.6332 68.5 43.75 68.5Z" fill="white" fill-opacity="0.6"/>
<path d="M43.75 68.5C56.8668 68.5 67.5 57.8668 67.5 44.75V43.25C67.5 29.3048 78.8048 18 92.75 18H350C366.569 18 380 31.4315 380 48L379.916 197.667C379.896 232.592 403.034 263.298 436.611 272.907V272.907C443.7 274.936 451.04 275.952 458.413 275.925L761.02 274.828C763.646 274.818 766.265 275.085 768.834 275.622V275.622C792.122 280.495 814 262.722 814 238.929V78C814 61.4315 827.431 48 844 48H1101.25C1115.2 48 1126.5 59.3048 1126.5 73.25C1126.5 87.1952 1126.5 74.75 1126.5 74.75C1126.5 87.8668 1137.13 98.5 1150.25 98.5C1163.37 98.5 1174 109.133 1174 122.25V284C1174 300.569 1160.57 314 1144 314H842.392C836.747 314 831.289 311.978 827.006 308.301V308.301C811.688 295.151 788 306.034 788 326.223V483.5C788 494.822 778.822 504 767.5 504H765C755.059 504 747 512.059 747 522C747 531.941 738.941 540 729 540H458C441.431 540 428 526.569 428 510V365.519C428 329.305 404.109 297.432 369.349 287.273V287.273C361.921 285.102 354.221 284 346.481 284H50C33.4314 284 20 270.569 20 254V92.25C20 79.1332 30.6332 68.5 43.75 68.5Z" stroke="white"/>
</g>
<g filter="url(#filter1_b_1_299)">
<circle cx="26.5" cy="26.5" r="25.5" fill="white" fill-opacity="0.5"/>
<circle cx="26.5" cy="26.5" r="25.5" stroke="white"/>
</g>
<g filter="url(#filter2_b_1_299)">
<circle cx="781.5" cy="539.5" r="19.5" fill="white" fill-opacity="0.5"/>
<circle cx="781.5" cy="539.5" r="19.5" stroke="white"/>
</g>
<g filter="url(#filter3_b_1_299)">
<circle cx="1169" cy="56" r="25" fill="white" fill-opacity="0.5"/>
<circle cx="1169" cy="56" r="25" stroke="white"/>
</g>
<path d="M536.14 346H567.94V354.16H545.5V363.1H565.9V371.26H545.5V388H536.14V346ZM580.824 388.96C577.544 388.96 574.924 388.08 572.964 386.32C571.004 384.56 570.024 382.26 570.024 379.42C570.024 376.7 570.924 374.52 572.724 372.88C574.564 371.24 577.184 370.28 580.584 370L587.364 369.52C588.924 369.4 589.704 368.62 589.704 367.18C589.704 365.98 589.264 365.08 588.384 364.48C587.504 363.84 586.284 363.52 584.724 363.52C581.404 363.52 579.544 364.84 579.144 367.48H570.624C570.944 364 572.284 361.32 574.644 359.44C577.004 357.52 580.364 356.56 584.724 356.56C589.124 356.56 592.504 357.58 594.864 359.62C597.264 361.66 598.464 364.7 598.464 368.74V380.56H600.924V388H597.444C593.724 388 591.644 386.28 591.204 382.84C590.244 384.92 588.864 386.46 587.064 387.46C585.264 388.46 583.184 388.96 580.824 388.96ZM582.804 382.06C584.804 382.06 586.464 381.48 587.784 380.32C589.104 379.12 589.764 377.7 589.764 376.06V374.8L582.744 375.4C581.424 375.52 580.444 375.9 579.804 376.54C579.164 377.14 578.844 377.92 578.844 378.88C578.844 379.84 579.184 380.62 579.864 381.22C580.544 381.78 581.524 382.06 582.804 382.06ZM605.945 366.16C605.945 363.32 606.705 361.18 608.225 359.74C609.745 358.26 611.965 357.52 614.885 357.52H624.905V364.96H614.885V388H605.945V366.16ZM629.431 357.52H637.531V361.6C638.451 359.96 639.691 358.72 641.251 357.88C642.811 357 644.591 356.56 646.591 356.56C648.831 356.56 650.751 357.06 652.351 358.06C653.991 359.06 655.231 360.48 656.071 362.32C656.951 360.44 658.211 359.02 659.851 358.06C661.491 357.06 663.391 356.56 665.551 356.56C668.871 356.56 671.491 357.64 673.411 359.8C675.371 361.92 676.351 364.88 676.351 368.68V388H667.411V369.82C667.411 366.1 665.991 364.24 663.151 364.24C661.551 364.24 660.191 364.9 659.071 366.22C657.951 367.5 657.371 369.5 657.331 372.22V388H648.451V369.82C648.451 366.1 647.031 364.24 644.191 364.24C642.551 364.24 641.171 364.92 640.051 366.28C638.931 367.6 638.351 369.58 638.311 372.22V388H629.431V357.52Z" fill="#232529"/>
<path d="M479.34 434.5H494.73C496.47 434.5 498.015 434.83 499.365 435.49C500.745 436.12 501.81 437.035 502.56 438.235C503.31 439.405 503.685 440.77 503.685 442.33C503.685 444.1 503.25 445.525 502.38 446.605C501.51 447.685 500.445 448.465 499.185 448.945C500.955 449.605 502.32 450.64 503.28 452.05C504.24 453.43 504.72 455.11 504.72 457.09C504.72 459.82 503.82 461.995 502.02 463.615C500.25 465.205 497.91 466 495 466H479.34V434.5ZM494.145 461.545C495.825 461.545 497.145 461.14 498.105 460.33C499.065 459.52 499.545 458.395 499.545 456.955C499.545 455.425 499.065 454.24 498.105 453.4C497.145 452.53 495.825 452.095 494.145 452.095H484.425V461.545H494.145ZM493.695 447.73C495.255 447.73 496.47 447.34 497.34 446.56C498.21 445.78 498.645 444.685 498.645 443.275C498.645 441.895 498.21 440.83 497.34 440.08C496.47 439.33 495.255 438.955 493.695 438.955H484.425V447.73H493.695ZM509.562 434.5H524.682C527.742 434.5 530.202 435.265 532.062 436.795C533.922 438.325 534.852 440.395 534.852 443.005C534.852 444.805 534.417 446.32 533.547 447.55C532.677 448.75 531.492 449.605 529.992 450.115C532.422 450.865 533.802 452.965 534.132 456.415L535.077 466H529.992L528.822 454.39C528.792 453.94 528.672 453.625 528.462 453.445C528.252 453.265 527.922 453.175 527.472 453.175H514.647V466H509.562V434.5ZM523.917 448.81C525.777 448.81 527.187 448.375 528.147 447.505C529.137 446.635 529.632 445.405 529.632 443.815C529.632 442.255 529.152 441.055 528.192 440.215C527.232 439.375 525.867 438.955 524.097 438.955H514.647V448.81H523.917ZM554.045 466.675C550.985 466.675 548.3 466 545.99 464.65C543.71 463.3 541.94 461.38 540.68 458.89C539.42 456.4 538.79 453.505 538.79 450.205C538.79 446.935 539.42 444.07 540.68 441.61C541.94 439.12 543.71 437.2 545.99 435.85C548.3 434.5 550.97 433.825 554 433.825C556.67 433.825 559.055 434.365 561.155 435.445C563.255 436.495 564.92 437.995 566.15 439.945C567.41 441.865 568.145 444.1 568.355 446.65H563.18C562.91 444.16 561.95 442.165 560.3 440.665C558.65 439.135 556.55 438.37 554 438.37C552.02 438.37 550.28 438.865 548.78 439.855C547.28 440.815 546.125 442.195 545.315 443.995C544.505 445.795 544.1 447.88 544.1 450.25C544.1 452.62 544.505 454.705 545.315 456.505C546.155 458.305 547.325 459.7 548.825 460.69C550.325 461.65 552.05 462.13 554 462.13C556.61 462.13 558.785 461.35 560.525 459.79C562.265 458.23 563.27 456.205 563.54 453.715H568.625C568.445 456.295 567.71 458.56 566.42 460.51C565.16 462.46 563.465 463.975 561.335 465.055C559.205 466.135 556.775 466.675 554.045 466.675ZM594.223 440.845C594.223 439.645 593.608 439.045 592.378 439.045H584.188V434.5H609.343V439.045H601.153C600.553 439.045 600.088 439.21 599.758 439.54C599.458 439.84 599.308 440.275 599.308 440.845V466H594.223V440.845ZM613.268 443.32H618.083V466H613.268V443.32ZM615.698 439.18C614.828 439.18 614.108 438.925 613.538 438.415C612.968 437.875 612.683 437.185 612.683 436.345C612.683 435.535 612.968 434.86 613.538 434.32C614.138 433.75 614.858 433.465 615.698 433.465C616.538 433.465 617.243 433.75 617.813 434.32C618.413 434.86 618.713 435.535 618.713 436.345C618.713 437.185 618.428 437.875 617.858 438.415C617.288 438.925 616.568 439.18 615.698 439.18ZM634.104 466.675C631.854 466.675 629.874 466.18 628.164 465.19C626.454 464.2 625.119 462.805 624.159 461.005C623.229 459.175 622.764 457.06 622.764 454.66C622.764 452.26 623.229 450.16 624.159 448.36C625.119 446.53 626.454 445.12 628.164 444.13C629.874 443.14 631.854 442.645 634.104 442.645C637.014 442.645 639.429 443.485 641.349 445.165C643.269 446.815 644.394 449.095 644.724 452.005H639.909C639.669 450.445 639.009 449.185 637.929 448.225C636.879 447.265 635.589 446.785 634.059 446.785C632.169 446.785 630.639 447.505 629.469 448.945C628.299 450.385 627.714 452.29 627.714 454.66C627.714 457.03 628.299 458.935 629.469 460.375C630.669 461.815 632.214 462.535 634.104 462.535C635.664 462.535 637.014 462.055 638.154 461.095C639.294 460.105 639.969 458.8 640.179 457.18H644.949C644.649 460.09 643.509 462.4 641.529 464.11C639.579 465.82 637.104 466.675 634.104 466.675ZM659.989 456.01C659.689 455.44 659.329 455.155 658.909 455.155C658.549 455.155 658.189 455.335 657.829 455.695L653.869 459.835V466H649.234V434.5H653.869V454.21L664.129 443.32H669.844L663.589 449.935C663.139 450.415 662.914 450.895 662.914 451.375C662.914 451.705 663.019 452.065 663.229 452.455L670.609 466H665.254L659.989 456.01ZM683.562 466.675C681.282 466.675 679.287 466.18 677.577 465.19C675.867 464.2 674.547 462.805 673.617 461.005C672.687 459.175 672.222 457.06 672.222 454.66C672.222 452.26 672.672 450.16 673.572 448.36C674.502 446.53 675.822 445.12 677.532 444.13C679.242 443.14 681.237 442.645 683.517 442.645C686.787 442.645 689.367 443.65 691.257 445.66C693.177 447.64 694.137 450.31 694.137 453.67C694.137 454.42 694.092 455.2 694.002 456.01H677.082C677.232 458.11 677.877 459.76 679.017 460.96C680.157 462.13 681.672 462.715 683.562 462.715C685.032 462.715 686.232 462.385 687.162 461.725C688.122 461.065 688.737 460.27 689.007 459.34H693.777C693.297 461.5 692.157 463.27 690.357 464.65C688.557 466 686.292 466.675 683.562 466.675ZM689.277 452.5C689.307 450.76 688.797 449.335 687.747 448.225C686.697 447.085 685.227 446.515 683.337 446.515C681.657 446.515 680.262 447.04 679.152 448.09C678.072 449.14 677.427 450.61 677.217 452.5H689.277ZM708.466 466C705.976 466 704.086 465.37 702.796 464.11C701.506 462.85 700.861 461.08 700.861 458.8V447.46H696.721V443.32H699.286C699.886 443.32 700.336 443.17 700.636 442.87C700.966 442.54 701.131 442.09 701.131 441.52V436.3H705.586V443.32H710.266V447.46H705.676V460.51C705.676 460.99 705.781 461.335 705.991 461.545C706.231 461.755 706.591 461.86 707.071 461.86H710.851V466H708.466ZM726.86 452.95C731.48 453.85 733.79 456.07 733.79 459.61C733.79 461.8 732.935 463.525 731.225 464.785C729.515 466.045 727.19 466.675 724.25 466.675C721.1 466.675 718.595 465.955 716.735 464.515C714.905 463.045 713.96 461.05 713.9 458.53H718.4C718.55 459.88 719.105 460.93 720.065 461.68C721.055 462.4 722.435 462.76 724.205 462.76C725.675 462.76 726.83 462.49 727.67 461.95C728.51 461.41 728.93 460.63 728.93 459.61C728.93 458.8 728.63 458.17 728.03 457.72C727.46 457.27 726.545 456.925 725.285 456.685L721.865 456.055C716.945 455.245 714.485 453.085 714.485 449.575C714.485 447.505 715.28 445.84 716.87 444.58C718.46 443.29 720.65 442.645 723.44 442.645C726.26 442.645 728.525 443.32 730.235 444.67C731.945 446.02 732.875 447.91 733.025 450.34H728.435C728.285 449.11 727.775 448.165 726.905 447.505C726.065 446.815 724.895 446.47 723.395 446.47C722.015 446.47 720.965 446.74 720.245 447.28C719.555 447.79 719.21 448.495 719.21 449.395C719.21 450.145 719.51 450.76 720.11 451.24C720.71 451.69 721.73 452.035 723.17 452.275L726.86 452.95Z" fill="#232529"/>
<path d="M142.3 143.9C136.22 143.9 131.42 142.42 127.9 139.46C124.42 136.5 122.68 132.32 122.68 126.92H132.04C132.04 132.96 135.42 135.98 142.18 135.98C144.86 135.98 146.86 135.54 148.18 134.66C149.54 133.74 150.22 132.5 150.22 130.94C150.22 129.62 149.74 128.58 148.78 127.82C147.82 127.02 146.36 126.44 144.4 126.08L138.4 125.06C133.6 124.22 130.04 122.8 127.72 120.8C125.4 118.8 124.24 116.12 124.24 112.76C124.24 108.8 125.7 105.7 128.62 103.46C131.54 101.22 135.54 100.1 140.62 100.1C144.26 100.1 147.4 100.72 150.04 101.96C152.72 103.16 154.78 104.9 156.22 107.18C157.66 109.42 158.38 112.06 158.38 115.1H149.38C149.3 112.74 148.46 110.94 146.86 109.7C145.26 108.46 143.12 107.84 140.44 107.84C138.16 107.84 136.44 108.26 135.28 109.1C134.16 109.94 133.6 111.06 133.6 112.46C133.6 113.7 134.08 114.68 135.04 115.4C136 116.08 137.5 116.6 139.54 116.96L145.3 117.98C150.3 118.9 153.94 120.36 156.22 122.36C158.5 124.32 159.64 127.04 159.64 130.52C159.64 134.76 158.1 138.06 155.02 140.42C151.98 142.74 147.74 143.9 142.3 143.9ZM180.772 143C176.892 143 173.892 142 171.772 140C169.652 137.96 168.592 135.1 168.592 131.42V119.96H163.012V112.52H166.672C167.472 112.52 168.092 112.32 168.532 111.92C168.972 111.48 169.192 110.88 169.192 110.12V103.4H177.292V112.52H183.772V119.96H177.532V133.76C177.532 134.96 178.152 135.56 179.392 135.56H184.432V143H180.772ZM199.304 143.96C196.024 143.96 193.404 143.08 191.444 141.32C189.484 139.56 188.504 137.26 188.504 134.42C188.504 131.7 189.404 129.52 191.204 127.88C193.044 126.24 195.664 125.28 199.064 125L205.844 124.52C207.404 124.4 208.184 123.62 208.184 122.18C208.184 120.98 207.744 120.08 206.864 119.48C205.984 118.84 204.764 118.52 203.204 118.52C199.884 118.52 198.024 119.84 197.624 122.48H189.104C189.424 119 190.764 116.32 193.124 114.44C195.484 112.52 198.844 111.56 203.204 111.56C207.604 111.56 210.984 112.58 213.344 114.62C215.744 116.66 216.944 119.7 216.944 123.74V135.56H219.404V143H215.924C212.204 143 210.124 141.28 209.684 137.84C208.724 139.92 207.344 141.46 205.544 142.46C203.744 143.46 201.664 143.96 199.304 143.96ZM201.284 137.06C203.284 137.06 204.944 136.48 206.264 135.32C207.584 134.12 208.244 132.7 208.244 131.06V129.8L201.224 130.4C199.904 130.52 198.924 130.9 198.284 131.54C197.644 132.14 197.324 132.92 197.324 133.88C197.324 134.84 197.664 135.62 198.344 136.22C199.024 136.78 200.004 137.06 201.284 137.06ZM239.668 131.48C239.268 130.72 238.768 130.34 238.168 130.34C237.688 130.34 237.208 130.58 236.728 131.06L232.948 135.02V143H224.548V101H232.948V124.94L244.528 112.58H254.668L245.968 121.76C245.368 122.4 245.068 123.04 245.068 123.68C245.068 124.12 245.208 124.6 245.488 125.12L255.508 143H245.848L239.668 131.48ZM272.984 143.96C269.744 143.96 266.904 143.3 264.464 141.98C262.024 140.62 260.144 138.72 258.824 136.28C257.504 133.8 256.844 130.94 256.844 127.7C256.844 124.5 257.484 121.68 258.764 119.24C260.084 116.8 261.964 114.92 264.404 113.6C266.844 112.24 269.704 111.56 272.984 111.56C276.184 111.56 278.924 112.18 281.204 113.42C283.484 114.66 285.224 116.42 286.424 118.7C287.624 120.94 288.224 123.54 288.224 126.5C288.224 127.5 288.124 128.7 287.924 130.1H265.724C265.964 132.3 266.704 134 267.944 135.2C269.224 136.36 270.904 136.94 272.984 136.94C274.584 136.94 275.924 136.62 277.004 135.98C278.084 135.3 278.764 134.48 279.044 133.52H287.804C287.244 136.64 285.624 139.16 282.944 141.08C280.264 143 276.944 143.96 272.984 143.96ZM279.344 124.34C279.304 122.46 278.704 121 277.544 119.96C276.384 118.88 274.804 118.34 272.804 118.34C270.964 118.34 269.444 118.84 268.244 119.84C267.044 120.84 266.264 122.34 265.904 124.34H279.344Z" fill="#232529"/>
<path d="M142.7 217.665C142.7 216.885 142.28 216.405 141.44 216.225C138.56 215.565 136.355 214.23 134.825 212.22C133.295 210.18 132.53 207.63 132.53 204.57H137.435C137.435 207.12 138.125 209.055 139.505 210.375C140.915 211.665 142.97 212.31 145.67 212.31C147.98 212.31 149.705 211.86 150.845 210.96C152.015 210.06 152.6 208.845 152.6 207.315C152.6 206.025 152.18 204.99 151.34 204.21C150.5 203.43 149.195 202.875 147.425 202.545L143.06 201.69C139.82 201.09 137.405 200.025 135.815 198.495C134.255 196.935 133.475 195.015 133.475 192.735C133.475 190.455 134.165 188.565 135.545 187.065C136.925 185.535 138.86 184.545 141.35 184.095C142.25 183.945 142.7 183.465 142.7 182.655V180.9H147.335V182.79C147.335 183.57 147.74 184.05 148.55 184.23C151.16 184.83 153.185 186.045 154.625 187.875C156.065 189.705 156.785 192.015 156.785 194.805H152.015C151.985 192.585 151.325 190.935 150.035 189.855C148.775 188.745 146.99 188.19 144.68 188.19C142.67 188.19 141.125 188.58 140.045 189.36C138.995 190.11 138.47 191.19 138.47 192.6C138.47 193.86 138.905 194.865 139.775 195.615C140.675 196.365 142.055 196.92 143.915 197.28L148.145 198.09C151.355 198.72 153.725 199.815 155.255 201.375C156.785 202.905 157.55 204.87 157.55 207.27C157.55 209.79 156.755 211.86 155.165 213.48C153.575 215.1 151.4 216.105 148.64 216.495C147.77 216.645 147.335 217.11 147.335 217.89V219.6H142.7V217.665ZM162.771 184.5H178.161C179.901 184.5 181.446 184.83 182.796 185.49C184.176 186.12 185.241 187.035 185.991 188.235C186.741 189.405 187.116 190.77 187.116 192.33C187.116 194.1 186.681 195.525 185.811 196.605C184.941 197.685 183.876 198.465 182.616 198.945C184.386 199.605 185.751 200.64 186.711 202.05C187.671 203.43 188.151 205.11 188.151 207.09C188.151 209.82 187.251 211.995 185.451 213.615C183.681 215.205 181.341 216 178.431 216H162.771V184.5ZM177.576 211.545C179.256 211.545 180.576 211.14 181.536 210.33C182.496 209.52 182.976 208.395 182.976 206.955C182.976 205.425 182.496 204.24 181.536 203.4C180.576 202.53 179.256 202.095 177.576 202.095H167.856V211.545H177.576ZM177.126 197.73C178.686 197.73 179.901 197.34 180.771 196.56C181.641 195.78 182.076 194.685 182.076 193.275C182.076 191.895 181.641 190.83 180.771 190.08C179.901 189.33 178.686 188.955 177.126 188.955H167.856V197.73H177.126ZM192.993 184.5H208.113C211.173 184.5 213.633 185.265 215.493 186.795C217.353 188.325 218.283 190.395 218.283 193.005C218.283 194.805 217.848 196.32 216.978 197.55C216.108 198.75 214.923 199.605 213.423 200.115C215.853 200.865 217.233 202.965 217.563 206.415L218.508 216H213.423L212.253 204.39C212.223 203.94 212.103 203.625 211.893 203.445C211.683 203.265 211.353 203.175 210.903 203.175H198.078V216H192.993V184.5ZM207.348 198.81C209.208 198.81 210.618 198.375 211.578 197.505C212.568 196.635 213.063 195.405 213.063 193.815C213.063 192.255 212.583 191.055 211.623 190.215C210.663 189.375 209.298 188.955 207.528 188.955H198.078V198.81H207.348ZM237.476 216.675C234.416 216.675 231.731 216 229.421 214.65C227.141 213.3 225.371 211.38 224.111 208.89C222.851 206.4 222.221 203.505 222.221 200.205C222.221 196.935 222.851 194.07 224.111 191.61C225.371 189.12 227.141 187.2 229.421 185.85C231.731 184.5 234.401 183.825 237.431 183.825C240.101 183.825 242.486 184.365 244.586 185.445C246.686 186.495 248.351 187.995 249.581 189.945C250.841 191.865 251.576 194.1 251.786 196.65H246.611C246.341 194.16 245.381 192.165 243.731 190.665C242.081 189.135 239.981 188.37 237.431 188.37C235.451 188.37 233.711 188.865 232.211 189.855C230.711 190.815 229.556 192.195 228.746 193.995C227.936 195.795 227.531 197.88 227.531 200.25C227.531 202.62 227.936 204.705 228.746 206.505C229.586 208.305 230.756 209.7 232.256 210.69C233.756 211.65 235.481 212.13 237.431 212.13C240.041 212.13 242.216 211.35 243.956 209.79C245.696 208.23 246.701 206.205 246.971 203.715H252.056C251.876 206.295 251.141 208.56 249.851 210.51C248.591 212.46 246.896 213.975 244.766 215.055C242.636 216.135 240.206 216.675 237.476 216.675ZM263.516 190.845C263.516 189.645 262.901 189.045 261.671 189.045H253.481V184.5H278.636V189.045H270.446C269.846 189.045 269.381 189.21 269.051 189.54C268.751 189.84 268.601 190.275 268.601 190.845V216H263.516V190.845Z" fill="#232529"/>
<path d="M933.5 169.9C929.26 169.9 925.54 169 922.34 167.2C919.14 165.4 916.66 162.84 914.9 159.52C913.18 156.2 912.32 152.36 912.32 148C912.32 143.64 913.18 139.8 914.9 136.48C916.66 133.16 919.14 130.6 922.34 128.8C925.54 127 929.26 126.1 933.5 126.1C937.3 126.1 940.66 126.84 943.58 128.32C946.54 129.8 948.88 131.9 950.6 134.62C952.36 137.34 953.34 140.5 953.54 144.1H943.94C943.66 141.06 942.58 138.66 940.7 136.9C938.86 135.14 936.46 134.26 933.5 134.26C931.22 134.26 929.2 134.84 927.44 136C925.72 137.12 924.38 138.72 923.42 140.8C922.46 142.88 921.98 145.28 921.98 148C921.98 150.72 922.46 153.12 923.42 155.2C924.38 157.28 925.72 158.9 927.44 160.06C929.2 161.18 931.22 161.74 933.5 161.74C936.5 161.74 939 160.82 941 158.98C943 157.14 944.14 154.72 944.42 151.72H953.9C953.7 155.36 952.72 158.56 950.96 161.32C949.24 164.04 946.86 166.16 943.82 167.68C940.82 169.16 937.38 169.9 933.5 169.9ZM968.56 169C965.64 169 963.42 168.28 961.9 166.84C960.38 165.36 959.62 163.2 959.62 160.36V127H968.5V161.56H972.04V169H968.56ZM986.843 169.96C983.563 169.96 980.943 169.08 978.983 167.32C977.023 165.56 976.043 163.26 976.043 160.42C976.043 157.7 976.943 155.52 978.743 153.88C980.583 152.24 983.203 151.28 986.603 151L993.383 150.52C994.943 150.4 995.723 149.62 995.723 148.18C995.723 146.98 995.283 146.08 994.403 145.48C993.523 144.84 992.303 144.52 990.743 144.52C987.423 144.52 985.563 145.84 985.163 148.48H976.643C976.963 145 978.303 142.32 980.663 140.44C983.023 138.52 986.383 137.56 990.743 137.56C995.143 137.56 998.523 138.58 1000.88 140.62C1003.28 142.66 1004.48 145.7 1004.48 149.74V161.56H1006.94V169H1003.46C999.743 169 997.663 167.28 997.223 163.84C996.263 165.92 994.883 167.46 993.083 168.46C991.283 169.46 989.203 169.96 986.843 169.96ZM988.823 163.06C990.823 163.06 992.483 162.48 993.803 161.32C995.123 160.12 995.783 158.7 995.783 157.06V155.8L988.763 156.4C987.443 156.52 986.463 156.9 985.823 157.54C985.183 158.14 984.863 158.92 984.863 159.88C984.863 160.84 985.203 161.62 985.883 162.22C986.563 162.78 987.543 163.06 988.823 163.06ZM1012.09 138.52H1020.97V169H1012.09V138.52ZM1016.59 135.16C1015.07 135.16 1013.79 134.7 1012.75 133.78C1011.75 132.82 1011.25 131.62 1011.25 130.18C1011.25 128.78 1011.75 127.6 1012.75 126.64C1013.79 125.64 1015.07 125.14 1016.59 125.14C1018.11 125.14 1019.37 125.64 1020.37 126.64C1021.41 127.6 1021.93 128.78 1021.93 130.18C1021.93 131.62 1021.41 132.82 1020.37 133.78C1019.37 134.7 1018.11 135.16 1016.59 135.16ZM1027.95 138.52H1036.05V142.6C1036.97 140.96 1038.21 139.72 1039.77 138.88C1041.33 138 1043.11 137.56 1045.11 137.56C1047.35 137.56 1049.27 138.06 1050.87 139.06C1052.51 140.06 1053.75 141.48 1054.59 143.32C1055.47 141.44 1056.73 140.02 1058.37 139.06C1060.01 138.06 1061.91 137.56 1064.07 137.56C1067.39 137.56 1070.01 138.64 1071.93 140.8C1073.89 142.92 1074.87 145.88 1074.87 149.68V169H1065.93V150.82C1065.93 147.1 1064.51 145.24 1061.67 145.24C1060.07 145.24 1058.71 145.9 1057.59 147.22C1056.47 148.5 1055.89 150.5 1055.85 153.22V169H1046.97V150.82C1046.97 147.1 1045.55 145.24 1042.71 145.24C1041.07 145.24 1039.69 145.92 1038.57 147.28C1037.45 148.6 1036.87 150.58 1036.83 153.22V169H1027.95V138.52Z" fill="#232529"/>
<path d="M864.26 247.675C863.39 247.675 862.655 247.405 862.055 246.865C861.485 246.325 861.2 245.635 861.2 244.795C861.2 243.955 861.485 243.265 862.055 242.725C862.655 242.155 863.39 241.87 864.26 241.87C865.13 241.87 865.85 242.155 866.42 242.725C867.02 243.265 867.32 243.955 867.32 244.795C867.32 245.635 867.02 246.325 866.42 246.865C865.85 247.405 865.13 247.675 864.26 247.675ZM885.77 247.675C884.03 247.675 882.485 247.315 881.135 246.595C879.815 245.875 878.72 244.825 877.85 243.445V247H873.44V215.5H878.255V227.29C879.095 226.09 880.16 225.19 881.45 224.59C882.74 223.96 884.18 223.645 885.77 223.645C887.78 223.645 889.55 224.14 891.08 225.13C892.64 226.09 893.84 227.485 894.68 229.315C895.55 231.115 895.985 233.23 895.985 235.66C895.985 238.09 895.55 240.22 894.68 242.05C893.84 243.85 892.64 245.245 891.08 246.235C889.55 247.195 887.78 247.675 885.77 247.675ZM884.69 243.535C886.61 243.535 888.14 242.83 889.28 241.42C890.42 239.98 890.99 238.06 890.99 235.66C890.99 233.26 890.42 231.355 889.28 229.945C888.14 228.505 886.61 227.785 884.69 227.785C882.74 227.785 881.165 228.505 879.965 229.945C878.765 231.385 878.165 233.29 878.165 235.66C878.165 238.03 878.765 239.935 879.965 241.375C881.165 242.815 882.74 243.535 884.69 243.535ZM910.271 247C907.781 247 905.891 246.37 904.601 245.11C903.311 243.85 902.666 242.08 902.666 239.8V228.46H898.526V224.32H901.091C901.691 224.32 902.141 224.17 902.441 223.87C902.771 223.54 902.936 223.09 902.936 222.52V217.3H907.391V224.32H912.071V228.46H907.481V241.51C907.481 241.99 907.586 242.335 907.796 242.545C908.036 242.755 908.396 242.86 908.876 242.86H912.656V247H910.271ZM926.74 247.675C924.49 247.675 922.51 247.18 920.8 246.19C919.09 245.2 917.755 243.805 916.795 242.005C915.865 240.175 915.4 238.06 915.4 235.66C915.4 233.26 915.865 231.16 916.795 229.36C917.755 227.53 919.09 226.12 920.8 225.13C922.51 224.14 924.49 223.645 926.74 223.645C929.65 223.645 932.065 224.485 933.985 226.165C935.905 227.815 937.03 230.095 937.36 233.005H932.545C932.305 231.445 931.645 230.185 930.565 229.225C929.515 228.265 928.225 227.785 926.695 227.785C924.805 227.785 923.275 228.505 922.105 229.945C920.935 231.385 920.35 233.29 920.35 235.66C920.35 238.03 920.935 239.935 922.105 241.375C923.305 242.815 924.85 243.535 926.74 243.535C928.3 243.535 929.65 243.055 930.79 242.095C931.93 241.105 932.605 239.8 932.815 238.18H937.585C937.285 241.09 936.145 243.4 934.165 245.11C932.215 246.82 929.74 247.675 926.74 247.675ZM964.086 247.675C962.076 247.675 960.291 247.195 958.731 246.235C957.201 245.245 956.001 243.85 955.131 242.05C954.291 240.22 953.871 238.09 953.871 235.66C953.871 233.23 954.291 231.115 955.131 229.315C956.001 227.485 957.201 226.09 958.731 225.13C960.291 224.14 962.076 223.645 964.086 223.645C965.676 223.645 967.101 223.96 968.361 224.59C969.621 225.19 970.686 226.075 971.556 227.245V215.5H976.416V247H972.006V243.4C971.166 244.78 970.071 245.845 968.721 246.595C967.371 247.315 965.826 247.675 964.086 247.675ZM965.121 243.535C967.071 243.535 968.646 242.815 969.846 241.375C971.046 239.935 971.646 238.03 971.646 235.66C971.646 233.29 971.046 231.385 969.846 229.945C968.646 228.505 967.071 227.785 965.121 227.785C963.201 227.785 961.671 228.505 960.531 229.945C959.391 231.355 958.821 233.26 958.821 235.66C958.821 238.06 959.391 239.98 960.531 241.42C961.671 242.83 963.201 243.535 965.121 243.535ZM992.625 247.675C990.315 247.675 988.29 247.18 986.55 246.19C984.81 245.2 983.46 243.805 982.5 242.005C981.57 240.175 981.105 238.06 981.105 235.66C981.105 233.26 981.57 231.16 982.5 229.36C983.46 227.53 984.81 226.12 986.55 225.13C988.29 224.14 990.315 223.645 992.625 223.645C994.935 223.645 996.96 224.14 998.7 225.13C1000.44 226.12 1001.77 227.53 1002.7 229.36C1003.66 231.16 1004.14 233.26 1004.14 235.66C1004.14 238.06 1003.66 240.175 1002.7 242.005C1001.77 243.805 1000.44 245.2 998.7 246.19C996.96 247.18 994.935 247.675 992.625 247.675ZM992.625 243.535C994.605 243.535 996.18 242.83 997.35 241.42C998.55 239.98 999.15 238.06 999.15 235.66C999.15 233.26 998.55 231.355 997.35 229.945C996.18 228.505 994.605 227.785 992.625 227.785C990.645 227.785 989.055 228.505 987.855 229.945C986.655 231.385 986.055 233.29 986.055 235.66C986.055 238.03 986.655 239.935 987.855 241.375C989.055 242.815 990.645 243.535 992.625 243.535ZM1008.81 224.32H1013.22V227.875C1013.88 226.495 1014.79 225.445 1015.96 224.725C1017.16 224.005 1018.56 223.645 1020.15 223.645C1021.86 223.645 1023.31 224.05 1024.51 224.86C1025.71 225.64 1026.6 226.75 1027.17 228.19C1027.83 226.72 1028.77 225.595 1030 224.815C1031.26 224.035 1032.73 223.645 1034.41 223.645C1036.81 223.645 1038.7 224.425 1040.08 225.985C1041.46 227.515 1042.15 229.645 1042.15 232.375V247H1037.34V233.41C1037.34 231.52 1036.99 230.125 1036.3 229.225C1035.64 228.325 1034.64 227.875 1033.29 227.875C1031.67 227.875 1030.36 228.535 1029.37 229.855C1028.41 231.145 1027.92 233.08 1027.89 235.66V247H1023.07V233.41C1023.07 231.52 1022.73 230.125 1022.04 229.225C1021.38 228.325 1020.37 227.875 1019.02 227.875C1017.4 227.875 1016.1 228.535 1015.11 229.855C1014.15 231.175 1013.65 233.11 1013.62 235.66V247H1008.81V224.32ZM1054.48 247.675C1052.05 247.675 1050.12 247.03 1048.68 245.74C1047.27 244.42 1046.56 242.725 1046.56 240.655C1046.56 238.645 1047.24 237.04 1048.59 235.84C1049.97 234.64 1051.95 233.95 1054.53 233.77L1060.06 233.365C1060.63 233.305 1061.05 233.14 1061.32 232.87C1061.59 232.57 1061.73 232.09 1061.73 231.43C1061.73 230.14 1061.29 229.18 1060.42 228.55C1059.55 227.92 1058.4 227.605 1056.96 227.605C1055.43 227.605 1054.23 227.95 1053.36 228.64C1052.49 229.3 1051.98 230.26 1051.83 231.52H1047.15C1047.45 228.94 1048.44 226.99 1050.12 225.67C1051.8 224.32 1054.09 223.645 1057 223.645C1060.06 223.645 1062.42 224.395 1064.07 225.895C1065.75 227.395 1066.59 229.69 1066.59 232.78V242.86H1068.43V247H1066.41C1063.86 247 1062.54 245.635 1062.45 242.905C1061.76 244.465 1060.72 245.65 1059.34 246.46C1057.96 247.27 1056.34 247.675 1054.48 247.675ZM1055.34 243.76C1057.23 243.76 1058.77 243.175 1059.97 242.005C1061.2 240.835 1061.82 239.305 1061.82 237.415V236.56L1055.43 237.01C1052.76 237.22 1051.42 238.345 1051.42 240.385C1051.42 241.495 1051.77 242.335 1052.46 242.905C1053.15 243.475 1054.11 243.76 1055.34 243.76ZM1072.9 224.32H1077.71V247H1072.9V224.32ZM1075.33 220.18C1074.46 220.18 1073.74 219.925 1073.17 219.415C1072.6 218.875 1072.31 218.185 1072.31 217.345C1072.31 216.535 1072.6 215.86 1073.17 215.32C1073.77 214.75 1074.49 214.465 1075.33 214.465C1076.17 214.465 1076.87 214.75 1077.44 215.32C1078.04 215.86 1078.34 216.535 1078.34 217.345C1078.34 218.185 1078.06 218.875 1077.49 219.415C1076.92 219.925 1076.2 220.18 1075.33 220.18ZM1099 233.59C1099 231.64 1098.61 230.2 1097.83 229.27C1097.08 228.34 1095.94 227.875 1094.41 227.875C1092.52 227.875 1091.05 228.535 1090 229.855C1088.95 231.175 1088.41 233.17 1088.38 235.84V247H1083.56V224.32H1087.97V227.92C1089.38 225.07 1091.87 223.645 1095.44 223.645C1098.05 223.645 1100.11 224.44 1101.61 226.03C1103.11 227.59 1103.86 229.78 1103.86 232.6V247H1099V233.59ZM1121.09 233.95C1125.71 234.85 1128.02 237.07 1128.02 240.61C1128.02 242.8 1127.17 244.525 1125.46 245.785C1123.75 247.045 1121.42 247.675 1118.48 247.675C1115.33 247.675 1112.83 246.955 1110.97 245.515C1109.14 244.045 1108.19 242.05 1108.13 239.53H1112.63C1112.78 240.88 1113.34 241.93 1114.3 242.68C1115.29 243.4 1116.67 243.76 1118.44 243.76C1119.91 243.76 1121.06 243.49 1121.9 242.95C1122.74 242.41 1123.16 241.63 1123.16 240.61C1123.16 239.8 1122.86 239.17 1122.26 238.72C1121.69 238.27 1120.78 237.925 1119.52 237.685L1116.1 237.055C1111.18 236.245 1108.72 234.085 1108.72 230.575C1108.72 228.505 1109.51 226.84 1111.1 225.58C1112.69 224.29 1114.88 223.645 1117.67 223.645C1120.49 223.645 1122.76 224.32 1124.47 225.67C1126.18 227.02 1127.11 228.91 1127.26 231.34H1122.67C1122.52 230.11 1122.01 229.165 1121.14 228.505C1120.3 227.815 1119.13 227.47 1117.63 227.47C1116.25 227.47 1115.2 227.74 1114.48 228.28C1113.79 228.79 1113.44 229.495 1113.44 230.395C1113.44 231.145 1113.74 231.76 1114.34 232.24C1114.94 232.69 1115.96 233.035 1117.4 233.275L1121.09 233.95Z" fill="#232529"/>
<defs>
<filter id="filter0_b_1_299" x="-0.5" y="-2.5" width="1195" height="563" filterUnits="userSpaceOnUse" color-interpolation-filters="sRGB">
<feFlood flood-opacity="0" result="BackgroundImageFix"/>
<feGaussianBlur in="BackgroundImageFix" stdDeviation="10"/>
<feComposite in2="SourceAlpha" operator="in" result="effect1_backgroundBlur_1_299"/>
<feBlend mode="normal" in="SourceGraphic" in2="effect1_backgroundBlur_1_299" result="shape"/>
</filter>
<filter id="filter1_b_1_299" x="-19.5" y="-19.5" width="92" height="92" filterUnits="userSpaceOnUse" color-interpolation-filters="sRGB">
<feFlood flood-opacity="0" result="BackgroundImageFix"/>
<feGaussianBlur in="BackgroundImageFix" stdDeviation="10"/>
<feComposite in2="SourceAlpha" operator="in" result="effect1_backgroundBlur_1_299"/>
<feBlend mode="normal" in="SourceGraphic" in2="effect1_backgroundBlur_1_299" result="shape"/>
</filter>
<filter id="filter2_b_1_299" x="741.5" y="499.5" width="80" height="80" filterUnits="userSpaceOnUse" color-interpolation-filters="sRGB">
<feFlood flood-opacity="0" result="BackgroundImageFix"/>
<feGaussianBlur in="BackgroundImageFix" stdDeviation="10"/>
<feComposite in2="SourceAlpha" operator="in" result="effect1_backgroundBlur_1_299"/>
<feBlend mode="normal" in="SourceGraphic" in2="effect1_backgroundBlur_1_299" result="shape"/>
</filter>
<filter id="filter3_b_1_299" x="1123.5" y="10.5" width="91" height="91" filterUnits="userSpaceOnUse" color-interpolation-filters="sRGB">
<feFlood flood-opacity="0" result="BackgroundImageFix"/>
<feGaussianBlur in="BackgroundImageFix" stdDeviation="10"/>
<feComposite in2="SourceAlpha" operator="in" result="effect1_backgroundBlur_1_299"/>
<feBlend mode="normal" in="SourceGraphic" in2="effect1_backgroundBlur_1_299" result="shape"/>
</filter>
</defs>
</svg>
