<svg width="25" height="21" viewBox="0 0 25 21" fill="none" xmlns="http://www.w3.org/2000/svg">
  <path d="M0.683101 9.41843C0.805743 9.09305 1.05541 8.92525 1.3737 8.80415C8.48259 6.08875 15.59 3.36605 22.7018 0.655026C22.9909 0.544134 23.334 0.469719 23.6333 0.512033C24.3575 0.614171 24.8101 1.31746 24.6524 2.03972C23.9648 5.18994 23.2698 8.33869 22.5763 11.4874C21.982 14.1839 21.3878 16.8803 20.7877 19.5753C20.5848 20.4901 19.7701 20.7761 19.0182 20.2071C17.2968 18.9041 15.574 17.6011 13.8511 16.2996C13.7591 16.2296 13.6657 16.161 13.5518 16.0763C13.4847 16.1376 13.419 16.1945 13.3576 16.2544C12.4334 17.1605 11.5136 18.0709 10.5821 18.9683C10.4712 19.0763 10.2959 19.1667 10.147 19.174C9.8959 19.1872 9.76012 18.9741 9.78056 18.6604C9.84188 17.7354 9.90758 16.8103 9.97328 15.8852C10.0185 15.2359 10.0769 14.5866 10.1091 13.9373C10.1193 13.7243 10.1894 13.5754 10.3471 13.4324C13.5168 10.5244 16.6836 7.61206 19.8489 4.70113C19.8825 4.67049 19.9161 4.64131 19.9468 4.60921C20.0417 4.50999 20.2052 4.42099 20.0723 4.25757C19.9424 4.09706 19.8124 4.22984 19.6971 4.30134C18.4093 5.08488 17.1245 5.87134 15.8382 6.6578C12.8773 8.46709 9.91634 10.2749 6.95832 12.0871C6.79771 12.1849 6.66193 12.1966 6.48673 12.1368C4.75805 11.5444 3.02791 10.9578 1.29631 10.3756C0.992627 10.2735 0.799903 10.0765 0.681641 9.7905V9.41551L0.683101 9.41843Z" fill="#000"></path>
</svg>
