<svg width="25" height="21" viewBox="0 0 25 21" fill="none" xmlns="http://www.w3.org/2000/svg">
<path d="M24.6826 2.86764C23.8008 3.26923 22.8513 3.54081 21.8554 3.66215C22.8724 3.0381 23.6529 2.04857 24.0205 0.869808C23.0682 1.44763 22.016 1.868 20.8918 2.09335C19.9959 1.1125 18.7154 0.5 17.2982 0.5C14.5808 0.5 12.3762 2.76074 12.3762 5.54875C12.3762 5.94457 12.4185 6.32882 12.503 6.69863C8.41074 6.48772 4.78334 4.47978 2.35333 1.42163C1.92932 2.16992 1.68702 3.0381 1.68702 3.96262C1.68702 5.71343 2.55619 7.25912 3.87755 8.16486C3.07177 8.1403 2.31107 7.91062 1.64617 7.53503V7.59715C1.64617 10.0442 3.34365 12.0854 5.59757 12.5477C5.18482 12.6661 4.74953 12.7254 4.30016 12.7254C3.9832 12.7254 3.67328 12.695 3.37323 12.6358C4.0001 14.6408 5.81732 16.1013 7.97263 16.1403C6.28783 17.4953 4.16351 18.3028 1.85747 18.3028C1.46022 18.3028 1.06719 18.2797 0.682617 18.2335C2.86187 19.6636 5.45106 20.5 8.23042 20.5C17.2884 20.5 22.2399 12.8077 22.2399 6.13525C22.2399 5.91567 22.2357 5.6961 22.2273 5.48086C23.1894 4.76869 24.0248 3.88028 24.6826 2.86764Z" fill="black"/>
</svg>
